<?xml version="1.0" encoding="utf-8"?>
<!-- Generator: Adobe Illustrator 16.0.0, SVG Export Plug-In . SVG Version: 6.00 Build 0)  -->
<!DOCTYPE svg PUBLIC "-//W3C//DTD SVG 1.1//EN" "http://www.w3.org/Graphics/SVG/1.1/DTD/svg11.dtd">
<svg version="1.1" xmlns="http://www.w3.org/2000/svg" xmlns:xlink="http://www.w3.org/1999/xlink" x="0px" y="0px" width="980px"
	 height="1550px" viewBox="0 0 980 1550" enable-background="new 0 0 980 1550" xml:space="preserve">
<g id="Rolling_Machine">
</g>
<g id="Head_1_">
</g>
<g id="CPU">
	<path fill-rule="evenodd" clip-rule="evenodd" fill="#808080" d="M550.11,266.474c-6.736,0-12.544,0-19.146,0
		c0.773-5.083-3.77-10.432,3.162-14.835c1.836-1.165,1.688-6.147,1.701-9.377c0.157-46.128,0.233-92.251,0.113-138.375
		c-0.008-2.286-1.363-5.362-3.131-6.717c-8.084-6.202-16.438-12.084-24.948-17.696c-1.909-1.261-4.965-1.732-7.256-1.3
		c-7.761,1.466-14.354-2.597-15.733-10.269c-1.126-6.233,3.233-12.418,9.421-13.36c7.926-1.212,13.494,3.404,14.75,11.446
		c0.394,2.517,2.046,5.457,4.051,6.991c8.716,6.677,17.707,13.003,26.748,19.236c3.019,2.085,4.296,4.323,4.288,8.153
		c-0.076,46.908,0.055,93.815,0.127,140.725c0.003,4.748,0.471,8.79,4.395,12.756C550.848,256.069,549.687,261.602,550.11,266.474z
		 M495.228,73.362c0.89,0.027,1.776,0.051,2.663,0.08c1.749-2.34,4.432-4.464,5.022-7.063c0.871-3.828-2.005-6.285-5.763-6.439
		c-4.252-0.179-6.813,2.719-6.321,6.63C491.127,68.979,493.688,71.112,495.228,73.362z"/>
	<path fill-rule="evenodd" clip-rule="evenodd" fill="#808080" d="M686.744,417.446c0-6.79,0-12.599,0-19.317
		c5.042,1.233,10.33-3.812,14.621,3.155c1.161,1.887,6.012,2.053,9.17,2.065c47.262,0.198,94.519,0.289,141.78,0.225
		c3.975-0.007,6.451,1.161,8.691,4.446c6.178,9.065,12.745,17.867,19.063,26.84c1.76,2.5,3.341,4.043,7.003,3.892
		c7.026-0.29,12.385,6.29,11.724,13.292c-0.63,6.646-6.727,11.926-12.816,11.094c-7.959-1.082-13.139-7.606-10.86-15.004
		c1.252-4.056,0.187-6.636-1.934-9.567c-5.624-7.784-10.975-15.778-16.893-23.333c-1.493-1.909-4.69-3.514-7.113-3.522
		c-46.475-0.143-92.952-0.074-139.428,0.115c-3.785,0.015-7.253,0.57-10.516,4.161C697.248,418.18,691.577,417.026,686.744,417.446z
		 M894.194,451.87c-0.04-0.916-0.076-1.83-0.115-2.747c-2.481-1.548-4.874-4.156-7.475-4.387c-3.654-0.325-6.171,2.588-5.94,6.465
		c0.222,3.799,2.873,6.63,6.53,5.905C889.771,456.594,891.879,453.7,894.194,451.87z"/>
	<path fill-rule="evenodd" clip-rule="evenodd" fill="#808080" d="M299.063,397.896c0,6.758,0,12.579,0,19.161
		c-5.263-0.78-10.431,2.961-14.937-3.209c-1.509-2.073-6.512-2.184-9.916-2.192c-32.55-0.087-65.099,0.048-97.649,0.104
		c-13.531,0.023-27.065-0.1-40.587,0.147c-1.958,0.03-4.534,1.271-5.711,2.804c-6.67,8.713-13.166,17.565-19.285,26.666
		c-1.085,1.613-0.431,4.646-0.066,6.935c0.927,5.791-1.749,11.593-6.667,13.78c-4.815,2.14-11.604,0.385-14.905-3.848
		c-3.309-4.249-3.67-10.76,0.163-14.637c2.283-2.313,5.85-4.271,9.009-4.568c3.681-0.354,5.528-1.923,7.411-4.618
		c6.179-8.834,12.686-17.441,18.734-26.363c2.354-3.472,4.962-4.743,9.159-4.72c46.076,0.223,92.152,0.267,138.228,0.302
		c5.311,0,10.059-0.877,14.696-4.59C289.329,396.972,294.564,398.192,299.063,397.896z M106.567,452.282
		c0.004-0.871,0.012-1.747,0.016-2.625c-2.402-1.663-4.628-4.291-7.245-4.762c-3.709-0.672-6.254,1.929-6.293,5.921
		c-0.035,3.979,2.489,6.65,6.163,6.107C101.832,456.534,104.125,453.906,106.567,452.282z"/>
	<path fill-rule="evenodd" clip-rule="evenodd" fill="#808080" d="M549.917,654.39c-1.272,5.166,3.06,10.525-3.583,14.79
		c-2.029,1.307-2.184,6.448-2.191,9.837c-0.097,32.18,0.035,64.361,0.087,96.542c0.023,15.107,0.149,30.224-0.131,45.328
		c-0.044,2.294-1.482,5.317-3.277,6.692c-9.041,6.9-18.322,13.499-27.719,19.904c-2.822,1.926-4.375,3.566-4.196,7.363
		c0.265,5.58-3.969,10.162-9.283,11.383c-5.152,1.185-10.795-1.483-13.376-6.326c-2.607-4.901-2.147-11.604,2.339-14.378
		c3.29-2.032,7.914-1.938,11.957-2.728c2.429-0.479,5.367-0.114,7.24-1.375c8.454-5.69,16.721-11.683,24.79-17.912
		c1.685-1.305,3.163-4.072,3.175-6.168c0.201-34.534,0.135-69.07,0.163-103.602c0.011-10.598,0.193-21.199,0.15-31.793
		c-0.024-5.492-0.267-10.59-4.438-15.42c-2.098-2.431-0.785-7.808-1.035-12.139C537.167,654.39,543.128,654.39,549.917,654.39z
		 M503.943,855.63c0.02-0.938,0.039-1.878,0.063-2.813c-2.357-1.707-4.957-5.014-7.015-4.708c-2.47,0.372-5.774,3.503-6.381,6.009
		c-0.867,3.586,2.231,6.606,5.988,6.039C499.215,859.765,501.506,857.216,503.943,855.63z"/>
	<path fill-rule="evenodd" clip-rule="evenodd" fill="#808080" d="M648.817,266.29c-7.182,0-12.999,0-19.197,0
		c0.024-5.834,0.887-10.622,3.14-16.15c2.982-7.347,1.957-16.388,2.313-24.718c0.262-6.072-0.361-12.191,0.091-18.239
		c0.176-2.294,1.701-5.271,3.56-6.521c11.061-7.443,22.341-14.57,33.698-21.558c2.018-1.244,4.736-1.834,7.146-1.878
		c11.382-0.193,22.772,0.074,34.147-0.234c2.311-0.063,5.164-1.347,6.757-3.026c5.312-5.62,12.94-6.39,18.238-1.306
		c4.987,4.784,4.891,13.36-0.198,17.901c-5.461,4.876-12.916,3.772-18.123-2.27c-1.284-1.49-3.701-2.771-5.627-2.814
		c-11.384-0.257-22.773-0.187-34.159-0.061c-1.858,0.021-3.976,0.457-5.524,1.421c-9.663,5.998-19.273,12.078-28.687,18.451
		c-1.573,1.063-2.9,3.646-2.972,5.576c-0.357,10-0.436,20.023-0.262,30.031c0.08,4.596,0.717,8.749,4.55,12.736
		C649.928,255.938,648.553,261.701,648.817,266.29z M728.973,188.561c0.911-0.021,1.823-0.041,2.734-0.061
		c1.716-2.409,4.491-4.651,4.891-7.26c0.551-3.618-2.195-6.413-6.091-6.294c-4.074,0.12-6.816,2.827-6.04,6.908
		C724.93,184.289,727.403,186.336,728.973,188.561z"/>
	<path fill-rule="evenodd" clip-rule="evenodd" fill="#808080" d="M686.78,318.621c0-7.231,0-13.048,0-19.397
		c5.771,0.36,10.605,0.9,16.167,3.194c7.149,2.949,16.07,1.625,24.229,2.098c1.17,0.066,2.401-0.374,3.517-0.14
		c12.016,2.525,17.925-3.718,24.449-13.277c9.646-14.133,15.027-28.348,12.736-45.37c-0.468-3.464-0.174-7.066,0.061-10.585
		c0.249-3.738-0.495-6.385-3.951-8.862c-5.85-4.197-5.918-12.368-0.904-17.584c4.534-4.712,12.096-4.812,16.967-0.226
		c4.974,4.684,5.279,13.617-0.175,17.781c-3.365,2.578-3.939,5.249-3.887,8.958c0.149,10.782,0.221,21.58-0.077,32.358
		c-0.079,2.958-0.967,6.235-2.492,8.752c-6.717,11.057-13.665,21.987-20.901,32.711c-1.245,1.845-4.28,3.429-6.532,3.489
		c-10.978,0.292-21.971-0.044-32.962-0.005c-4.954,0.016-9.174,1.209-13.414,4.712C696.978,319.409,691.572,318.239,686.78,318.621z
		 M773.689,210.08c-0.903-0.059-1.807-0.122-2.71-0.183c-1.757,2.287-4.408,4.344-5.058,6.912c-0.92,3.622,1.423,6.535,5.295,6.901
		c4.129,0.383,7.133-2.233,6.876-6.108C777.918,215.007,775.246,212.581,773.689,210.08z"/>
	<path fill-rule="evenodd" clip-rule="evenodd" fill="#808080" d="M299.154,298.791c0,7.25,0,13.067,0,19.25
		c-6.056,0.267-10.954-1.438-16.482-3.245c-8.921-2.913-19.166-1.795-28.856-2.288c-3.134-0.157-6.365-0.487-9.405,0.068
		c-7.098,1.3-11.084-1.712-14.255-7.876c-3.492-6.771-7.36-13.553-12.207-19.387c-9.991-12.024-7.784-26.058-7.915-39.798
		c-0.036-3.722,0.059-7.459,0.341-11.169c0.261-3.408-0.67-5.656-3.706-7.818c-5.945-4.238-6.357-12.311-1.534-17.559
		c4.661-5.067,12.357-5.219,17.343-0.344c5.049,4.93,5.263,13.419-0.412,17.691c-3.591,2.703-4.272,5.579-3.975,9.448
		c0.15,1.949,0.34,3.982-0.021,5.877c-4.526,23.851,7.07,42.304,20.193,60.186c1.034,1.41,3.389,2.58,5.152,2.611
		c11.18,0.182,22.384,0.325,33.544-0.241c3.091-0.158,5.921-3.364,9.119-4.13C290.105,299.102,294.391,299.2,299.154,298.791z
		 M215.285,210.156c-0.939,0.039-1.875,0.075-2.814,0.114c-1.525,2.497-4.415,5.133-4.177,7.447
		c0.222,2.116,3.615,5.096,5.989,5.512c3.562,0.623,6.796-2.068,5.968-6.028C219.712,214.618,217.017,212.486,215.285,210.156z"/>
	<path fill-rule="evenodd" clip-rule="evenodd" fill="#808080" d="M648.096,653.819c1.127,6.83-1.917,11.801-3.122,17.148
		c-2.231,9.911-0.876,20.572-2.061,30.797c-1.016,8.779,1.961,14.098,9.729,18.076c7.832,4.007,15.036,9.223,22.641,13.692
		c1.736,1.022,3.987,1.603,6.017,1.634c10.985,0.157,21.984,0.248,32.962-0.056c2.076-0.061,4.617-1.546,6.052-3.167
		c4.938-5.576,13.007-6.496,18.251-1.66c5.227,4.818,5.322,12.959,0.217,17.822c-5.254,5.002-13.103,4.063-18.219-1.677
		c-1.537-1.724-4.311-3.226-6.566-3.29c-11.561-0.336-23.138-0.043-34.706-0.276c-2.579-0.056-5.448-0.825-7.656-2.147
		c-11.093-6.651-22.106-13.453-32.903-20.569c-1.818-1.201-3.363-4.202-3.435-6.421c-0.386-12.156,0.02-24.339-0.512-36.481
		c-0.151-3.464,0.245-7.446-4.055-10.43c-1.969-1.368-1.228-7.162-0.938-10.888c0.063-0.832,3.352-1.884,5.211-2.014
		C639.267,653.612,643.563,653.819,648.096,653.819z M728.656,746.295c0.938,0.008,1.875,0.017,2.813,0.027
		c1.664-2.357,4.288-4.533,4.768-7.105c0.683-3.687-1.878-6.392-5.833-6.333c-3.718,0.059-6.758,2.333-6.234,6.127
		C724.522,741.595,727.083,743.877,728.656,746.295z"/>
	<path fill-rule="evenodd" clip-rule="evenodd" fill="#808080" d="M583.061,266.496c-6.995,0-12.837,0-19.498,0
		c1.278-5.132-3.412-10.261,3.114-14.913c2.378-1.693,2.401-7.565,2.426-11.536c0.139-22.353,0.051-44.706-0.214-67.058
		c-0.047-4.012,1.275-6.433,4.53-8.663c9.372-6.422,18.598-13.063,27.674-19.896c1.534-1.157,2.683-3.605,2.905-5.579
		c0.71-6.329,3.61-10.456,9.487-12.005c5.434-1.432,9.636,0.856,12.789,5.076c3.14,4.202,2.858,10.812-0.673,14.782
		c-3.75,4.214-8.387,5.315-13.867,3.421c-1.49-0.511-3.817-0.369-5.065,0.487c-9.044,6.21-17.98,12.58-26.756,19.162
		c-1.435,1.074-2.686,3.437-2.694,5.212c-0.146,23.133-0.214,46.271,0.171,69.398c0.047,3.049,0.617,6.449,4.078,9.353
		C583.766,255.668,582.612,261.701,583.061,266.496z M609.087,137.716c0.039,0.912,0.075,1.823,0.115,2.734
		c2.457,1.583,4.779,4.15,7.406,4.511c3.789,0.521,6.234-2.528,6.171-6.245c-0.071-3.999-2.679-7.051-6.773-6.184
		C613.449,133.072,611.378,135.909,609.087,137.716z"/>
	<path fill-rule="evenodd" clip-rule="evenodd" fill="#808080" d="M299.09,364.661c0,7.336,0,13.145,0,19.609
		c-5.731-0.575-10.522-0.671-16.149-3.35c-6.678-3.186-15.512-2.281-23.419-2.373c-18.243-0.211-36.493,0.166-54.736-0.04
		c-2.243-0.028-5.195-1.589-6.563-3.396c-7.106-9.374-13.685-19.147-20.763-28.543c-1.252-1.664-3.927-2.925-6.064-3.132
		c-8.042-0.771-12.777-5.976-11.838-13.68c0.884-7.266,7.681-11.815,15.056-10.083c6.742,1.583,10.174,8.401,8.26,15.716
		c-0.46,1.758-0.361,4.296,0.606,5.697c6.008,8.723,12.183,17.343,18.678,25.701c1.407,1.808,4.348,3.386,6.603,3.422
		c21.778,0.316,43.563,0.43,65.341,0.213c4.26-0.045,8.458-0.503,12.29-4.36C288.636,363.805,294.391,365.036,299.09,364.661z
		 M170.029,338.36c0.928,0.012,1.851,0.028,2.778,0.045c1.629-2.388,4.577-4.816,4.49-7.135c-0.071-2.085-3.174-5.208-5.481-5.809
		c-3.662-0.961-6.725,1.889-6.313,5.586C165.793,333.624,168.436,335.932,170.029,338.36z"/>
	<path fill-rule="evenodd" clip-rule="evenodd" fill="#808080" d="M563.379,654.194c6.797,0,12.635,0,19.332,0
		c-1.138,5.145,3.409,10.349-3.3,14.758c-2.137,1.404-2.212,6.83-2.232,10.416c-0.122,21.782-0.043,43.563,0.25,65.341
		c0.027,2.12,1.442,4.91,3.128,6.199c8.402,6.436,17.021,12.606,25.787,18.539c1.598,1.082,4.344,1.236,6.346,0.81
		c7.578-1.625,14.322,2.195,15.749,9.328c1.392,6.944-3.447,13.447-10.577,14.212c-7.438,0.802-12.877-4.216-13.648-12.07
		c-0.195-2.005-1.301-4.535-2.839-5.692c-9.242-6.956-18.634-13.729-28.206-20.219c-2.979-2.021-4.054-4.131-4.042-7.658
		c0.068-22.959-0.028-45.916-0.193-68.872c-0.033-4.621-0.061-8.885-4.285-12.831C562.472,664.423,563.717,658.735,563.379,654.194z
		 M623.521,783.26c0.024-0.86,0.047-1.724,0.068-2.588c-2.415-1.672-4.67-4.349-7.286-4.772c-3.748-0.611-6.72,2.406-5.96,6.056
		c0.492,2.358,3.649,5.668,5.759,5.78C618.491,787.861,621.039,784.888,623.521,783.26z"/>
	<path fill-rule="evenodd" clip-rule="evenodd" fill="#808080" d="M686.433,365.536c6.741-0.955,11.719,1.443,17.2,3.024
		c8.552,2.462,18.088,1.787,27.21,1.922c15.501,0.229,31.005,0.146,46.501-0.063c2.009-0.024,4.74-1.019,5.869-2.517
		c6.499-8.605,12.734-17.419,18.751-26.368c1.065-1.584,1.322-4.311,0.843-6.238c-1.861-7.51,1.813-14.378,8.941-15.906
		c7.213-1.546,13.875,3.186,14.933,10.611c0.96,6.714-4.839,12.865-12.349,13.646c-1.978,0.203-4.435,1.376-5.596,2.918
		c-6.841,9.087-13.439,18.357-19.943,27.69c-2.085,2.988-4.347,4.324-8.191,4.3c-22.171-0.144-44.34-0.003-66.511,0.135
		c-5.354,0.032-10.686-0.954-14.861,4.831c-1.359,1.883-7.419,0.816-11.177,0.194c-0.856-0.138-1.414-3.999-1.554-6.183
		C686.254,373.652,686.433,369.745,686.433,365.536z M821.783,332.942c0.047-0.863,0.091-1.732,0.139-2.596
		c-2.344-1.842-4.479-4.783-7.07-5.271c-3.888-0.729-6.678,1.97-6.729,6.214c-0.044,3.939,2.426,6.699,6.154,6.171
		C816.939,337.081,819.289,334.528,821.783,332.942z"/>
	<path fill-rule="evenodd" clip-rule="evenodd" fill="#808080" d="M686.92,483.032c0-6.63,0-12.448,0-18.394
		c5.857-1.062,10.339-0.233,16.012,2.447c6.863,3.239,15.923,2.25,24.041,2.345c17.834,0.219,35.672-0.1,53.509,0.008
		c1.591,0.008,3.711,1.09,4.665,2.365c6.691,8.941,13.198,18.021,19.635,27.148c2.286,3.238,4.213,5.918,9.107,5.787
		c5.706-0.158,9.38,3.824,10.665,9.285c1.185,5.037-0.742,9.373-4.859,12.4c-4.625,3.393-9.697,3.175-14.331,0.132
		c-4.68-3.079-5.9-8.014-4.138-13.004c1.257-3.563,0.301-5.794-1.68-8.481c-5.811-7.877-11.24-16.047-17.217-23.794
		c-1.391-1.808-4.332-3.377-6.582-3.417c-21.367-0.34-42.74-0.443-64.108-0.317c-4.381,0.024-8.479,0.675-12.346,4.423
		C697.021,484.166,691.291,482.791,686.92,483.032z M819.699,518.526c0.02-0.942,0.042-1.89,0.063-2.834
		c-2.346-1.707-4.871-4.96-6.991-4.715c-2.398,0.281-5.75,3.404-6.298,5.825c-0.769,3.417,2.093,6.717,5.898,6.207
		C814.966,522.66,817.268,520.101,819.699,518.526z"/>
	<path fill-rule="evenodd" clip-rule="evenodd" fill="#808080" d="M464.406,654.263c6.943,0,12.916,0,19.246,0
		c0.306,5.96-1.608,10.826-3.295,16.279c-2.893,9.362-1.995,19.971-2.171,30.065c-0.257,15.104-0.198,30.216,0.032,45.323
		c0.059,3.788-1.15,6.211-4.174,8.31c-9.5,6.601-18.943,13.282-28.233,20.175c-1.423,1.053-2.553,3.305-2.723,5.107
		c-0.777,8.111-6.598,13.672-13.768,12.683c-6.721-0.928-11.374-7.213-10.383-14.026c1.05-7.201,8.002-11.299,16.04-9.816
		c1.989,0.365,4.657,0.162,6.246-0.912c8.767-5.929,17.39-12.087,25.828-18.476c1.546-1.173,2.822-3.762,2.847-5.715
		c0.27-21.386,0.42-42.772,0.201-64.157c-0.039-4.216-0.272-8.44-4.371-12.194C463.476,664.852,464.756,658.931,464.406,654.263z
		 M438.273,781.63c0.02-0.967,0.043-1.934,0.067-2.9c-2.402-1.633-4.847-4.585-7.193-4.51c-2.132,0.071-5.342,3.114-5.961,5.414
		c-0.998,3.693,1.736,6.785,5.628,6.298C433.438,785.599,435.796,783.14,438.273,781.63z"/>
	<path fill-rule="evenodd" clip-rule="evenodd" fill="#808080" d="M483.482,266.413c-6.16,0-11.982,0-18.734,0
		c1.462-4.879-2.861-10.476,3.563-14.894c1.678-1.153,1.642-5.41,1.668-8.247c0.188-21.568,0.1-43.14,0.346-64.708
		c0.043-3.784-1.118-6.095-4.236-8.204c-8.113-5.488-15.873-11.492-24.03-16.909c-1.898-1.261-5.009-1.812-7.216-1.277
		c-7.284,1.768-14.082-1.728-15.496-8.596c-1.499-7.253,2.817-13.871,9.706-14.874c7.705-1.122,13.288,3.543,14.303,11.223
		c0.333,2.514,1.752,5.585,3.694,7.072c8.405,6.42,17.069,12.527,25.887,18.38c3.99,2.648,5.608,5.576,5.521,10.515
		c-0.375,20.979-0.314,41.963-0.31,62.944c0,5.434,0.157,10.407,4.981,14.913C485.233,255.717,483.482,261.804,483.482,266.413z
		 M438.012,142.271c0.044-0.939,0.083-1.883,0.127-2.822c-2.314-1.768-4.419-4.519-7-5.076c-3.76-0.81-6.289,2.044-6.495,5.809
		c-0.207,3.803,1.978,6.802,5.917,6.259C433.185,146.079,435.539,143.729,438.012,142.271z"/>
	<path fill-rule="evenodd" clip-rule="evenodd" fill="#808080" d="M299.542,463.554c0,4.09,0.27,7.221-0.075,10.28
		c-0.345,3.056-0.869,8.41-2.077,8.632c-4.031,0.753-8.798,3.1-12.488-2.387c-1.336-1.988-5.933-2.437-9.052-2.473
		c-21.559-0.234-43.119-0.115-64.679-0.277c-3.237-0.023-5.346,0.786-7.236,3.584c-5.703,8.433-11.886,16.546-17.509,25.025
		c-1.249,1.884-1.704,4.927-1.257,7.179c1.439,7.205-2.651,14.247-9.686,15.694c-6.472,1.328-13.443-3.596-14.216-10.04
		c-0.912-7.585,4.403-13.47,12.219-14.219c2.112-0.203,4.708-1.597,5.973-3.277c6.955-9.226,13.399-18.845,20.434-28.012
		c1.458-1.903,4.665-3.445,7.086-3.476c23.129-0.295,46.267-0.053,69.391-0.449c3.437-0.059,7.265-0.363,10.455-4.137
		C288.699,462.983,294.478,464.065,299.542,463.554z M175.027,509.428c-0.92-0.031-1.839-0.061-2.762-0.091
		c-1.756,2.334-5.058,4.814-4.855,6.967c0.222,2.385,3.313,5.75,5.754,6.389c3.587,0.942,6.678-2.145,6.294-5.815
		C179.188,514.271,176.589,511.905,175.027,509.428z"/>
	<path fill-rule="evenodd" clip-rule="evenodd" fill="#808080" d="M298.979,595.721c0,6.728,0,12.558,0,19.076
		c-5.18-0.908-10.019,2.718-14.842-3.267c-3.619-4.494-22.056-2.624-27.239,0.856c-10.087,6.77-20.216,13.479-30.481,19.972
		c-1.827,1.156-4.399,1.561-6.634,1.589c-11.564,0.13-23.137-0.124-34.697,0.149c-2.112,0.049-4.705,1.427-6.175,3.025
		c-5.112,5.544-12.516,6.577-17.782,2.012c-5.537-4.799-5.949-12.732-0.912-17.687c5.484-5.397,12.943-5.378,18.028,0.735
		c2.488,2.997,5.064,3.641,8.552,3.563c5.486-0.122,11.065-0.495,16.448,0.29c13.637,1.99,24.722-3.08,35.177-11.055
		c5.441-4.152,11.232-7.926,17.201-11.274c2.714-1.525,6.206-1.87,9.404-2.289c6.326-0.834,14.24,0.741,18.647-2.525
		C289.04,594.917,293.61,596.646,298.979,595.721z M176.41,630.923c-0.007-0.895-0.016-1.787-0.024-2.683
		c-2.441-1.634-4.72-4.218-7.364-4.673c-3.752-0.646-6.305,2.129-6.404,5.988c-0.107,4.213,2.695,7.008,6.595,6.408
		C171.809,635.563,174.024,632.689,176.41,630.923z"/>
	<path fill-rule="evenodd" clip-rule="evenodd" fill="#808080" d="M686.491,615.133c0-5.972-0.193-11.216,0.154-16.422
		c0.071-1.106,2.276-3.084,3.222-2.935c3.838,0.607,8.744-2.939,11.483,3.428c0.713,1.661,6.086,2.146,9.17,1.801
		c11.116-1.229,20.68,1.625,29.261,8.807c3.875,3.245,8.623,5.421,12.662,8.501c7.054,5.385,14.367,8.786,23.711,7.565
		c6.349-0.828,12.913-0.02,19.38,0.031c5.149,0.044,9.79,0.515,13.523-5.172c3.443-5.244,12.415-4.229,16.661,0.543
		c4.418,4.97,4.311,12.706-0.234,17.034c-4.942,4.699-13.186,4.897-17.252-0.556c-2.846-3.812-5.93-4.232-9.972-4.161
		c-10.771,0.182-21.552,0.289-32.323,0.076c-2.556-0.052-5.381-1.004-7.573-2.367c-10.649-6.602-21.028-13.632-31.689-20.22
		c-6.088-3.758-21.199-1.22-27.116,2.449C696.363,615.519,691.401,614.646,686.491,615.133z M809.802,628.282
		c-0.017,0.893-0.027,1.788-0.044,2.68c2.415,1.705,4.855,4.756,7.234,4.704c2.096-0.042,5.307-3.241,5.904-5.596
		c0.939-3.663-1.934-6.721-5.691-6.263C814.594,624.13,812.264,626.713,809.802,628.282z"/>
	<path fill-rule="evenodd" clip-rule="evenodd" fill="#808080" d="M686.758,548.69c0-6.627,0-12.436,0-19.182
		c5.145,1.768,10.699-2.592,14.882,3.955c1.185,1.855,6.087,1.795,9.289,1.822c22.146,0.215,44.288,0.361,66.43,0.171
		c4.356-0.035,6.917,1.617,9.101,4.943c2.477,3.765,5.208,7.355,7.697,11.112c2.614,3.951,5.131,6.951,10.873,7.094
		c6.632,0.166,11.114,7.854,9.636,14.284c-1.613,7.018-7.796,10.922-14.629,9.242c-6.722-1.653-11.096-8.386-8.873-14.83
		c1.209-3.505,0.392-5.688-1.518-8.451c-10.586-15.313-10.519-15.361-28.963-15.361c-14.895,0-29.788-0.094-44.681,0.052
		c-5.941,0.061-11.814-0.661-16.868,4.823C697.28,550.378,691.406,548.69,686.758,548.69z M801.587,577.451
		c0.928-0.003,1.854-0.008,2.786-0.011c1.647-2.418,4.335-4.685,4.699-7.278c0.551-3.895-2.829-6.538-6.34-5.778
		c-2.347,0.508-5.565,3.707-5.695,5.863C796.897,572.549,799.935,575.042,801.587,577.451z"/>
	<path fill-rule="evenodd" clip-rule="evenodd" fill="#808080" d="M299.09,529.985c0,6.367,0,12.186,0,19.019
		c-4.78-1.684-10.285,3.238-14.398-3.591c-0.987-1.637-5.37-1.669-8.195-1.691c-21.588-0.18-43.18-0.295-64.763-0.068
		c-2.414,0.024-5.259,1.809-7.094,3.602c-2.477,2.432-4.058,5.756-6.23,8.534c-3.143,4.019-5.667,7.478-3.535,13.511
		c2.089,5.912-3.888,12.486-10.316,13.228c-6.452,0.751-13.011-4.478-13.724-10.929c-0.738-6.683,4.264-13.356,11.136-13.278
		c4.372,0.052,6.238-1.956,8.288-4.921c3.011-4.356,6.606-8.355,9.229-12.92c2.398-4.174,5.41-5.292,10.023-5.221
		c19.817,0.314,39.641,0.275,59.46,0.314c6.432,0.011,12.551,0.253,17.921-5.26C288.862,528.292,294.644,529.985,299.09,529.985z
		 M182.002,577.696c0.927-0.027,1.858-0.059,2.79-0.091c1.577-2.448,4.185-4.772,4.499-7.372c0.479-4.018-2.759-7.022-6.54-6.075
		c-2.362,0.595-5.299,4.142-5.493,6.567C177.084,572.905,180.286,575.363,182.002,577.696z"/>
	<path fill-rule="evenodd" clip-rule="evenodd" fill="#808080" d="M418.196,266.433c-6.75,0-12.559,0-19.193,0
		c0.958-5.169-3.218-10.28,2.944-14.885c2.065-1.537,2.12-6.508,2.141-9.917c0.115-21.175-0.044-42.35-0.111-63.529
		c0-0.394,0.023-0.785-0.015-1.177c-0.421-4.447-17.669-16.321-22.048-15.184c-8.148,2.111-15.044-1.914-16.467-9.618
		c-1.181-6.405,3.42-12.944,9.738-13.837c7.715-1.089,13.783,4.238,14.679,12.485c0.198,1.818,1.284,4.019,2.683,5.14
		c4.732,3.794,9.662,7.385,14.767,10.654c3.643,2.333,5.228,4.949,5.148,9.515c-0.349,20.58-0.269,41.17-0.329,61.759
		c-0.015,5.873,0.258,11.228,4.979,16.174C419.246,256.246,417.915,261.795,418.196,266.433z M376.139,143.526
		c-1.372,1.66-4.225,3.689-4.918,6.293c-0.983,3.711,1.661,6.449,5.517,6.691c3.729,0.229,6.571-1.76,6.817-5.731
		C383.783,147.034,381.798,144.537,376.139,143.526z"/>
	<path fill-rule="evenodd" clip-rule="evenodd" fill="#808080" d="M352.436,266.408c-7.079,0-12.885,0-19.503,0
		c1.343-5.206-3.512-10.851,3.448-14.759c1.323-0.74,1.878-3.883,1.815-5.885c-0.278-8.41,1.514-16.903-4.665-24.664
		c-6.689-8.394-12.143-17.801-17.739-27.011c-1.403-2.308-1.731-5.526-1.775-8.339c-0.179-11.371,0.158-22.754-0.222-34.111
		c-0.076-2.192-2.276-4.542-3.96-6.393c-4.237-4.665-5.096-10.74-1.843-15.645c3.535-5.329,8.96-6.935,14.89-4.406
		c5.493,2.344,8.549,7.519,7.03,13.301c-0.697,2.645-2.389,5.651-4.558,7.13c-2.876,1.97-3.625,4.035-3.583,7.218
		c0.155,11.179-0.031,22.359,0.227,33.532c0.047,2.155,1.176,4.494,2.381,6.38c6.107,9.59,12.667,18.904,18.488,28.658
		c2.065,3.452,2.925,7.813,3.571,11.882c0.967,6.09-0.975,14.387,2.366,17.945C353.774,256.536,350.469,261.249,352.436,266.408z
		 M318.843,128.997c-5.299,1.418-7.269,3.745-7.063,7.586c0.21,3.903,2.612,6.139,6.492,5.857c3.785-0.27,6.535-2.789,5.671-6.531
		C323.349,133.351,320.619,131.283,318.843,128.997z"/>
	<path fill-rule="evenodd" clip-rule="evenodd" fill="#808080" d="M333.816,654.285c5.822,0,11.635,0,18.337,0
		c-1.22,5.116,2.517,9.949-3.226,14.799c-2.683,2.267-2.651,8.75-2.414,13.249c0.44,8.422-1.28,15.697-6.71,22.337
		c-3.578,4.37-5.873,9.801-9.487,14.128c-7.249,8.68-9.733,18.426-8.6,29.479c0.479,4.668,0.353,9.407,0.31,14.111
		c-0.048,5.466-0.111,10.28,5.068,14.519c5.121,4.186,3.65,12.816-1.581,17.18c-4.831,4.031-13.217,2.813-17.283-2.501
		c-3.992-5.223-3.274-13.079,2.302-16.685c3.222-2.086,3.833-4.312,3.741-7.672c-0.257-9.216-0.059-18.445-0.424-27.651
		c-0.282-7.124,1.339-13.345,5.631-19.187c5.338-7.26,9.753-15.202,15.136-22.424c5.707-7.662,4.514-15.924,2.861-24.119
		C336.197,667.49,330.646,662.054,333.816,654.285z M310.948,783.068c0.012,0.9,0.023,1.804,0.04,2.707
		c2.433,1.689,4.72,4.444,7.339,4.805c3.749,0.519,6.163-2.553,6.104-6.329c-0.059-3.75-2.41-6.805-6.262-6.096
		C315.55,778.643,313.342,781.353,310.948,783.068z"/>
	<path fill-rule="evenodd" clip-rule="evenodd" fill="#808080" d="M398.792,653.965c5.79,0,10.855-0.233,15.865,0.163
		c1.236,0.099,2.849,2.032,3.372,3.459c2.311,6.289-3.06,10.385-4.795,15.548c-0.476,1.402-0.841,2.922-0.848,4.391
		c-0.123,22.551-0.257,45.108-0.163,67.66c0.012,3.511-0.896,5.882-3.848,7.811c-3.765,2.466-7.166,5.501-10.962,7.916
		c-4.665,2.964-8.553,5.556-8.581,12.388c-0.02,6.227-7.542,10.407-13.447,8.953c-6.951-1.713-11.37-8.018-10.062-14.359
		c1.402-6.832,8.037-11.563,14.497-9.217c4.277,1.561,6.634-0.238,9.983-1.903c11.989-5.962,15.762-14.897,14.518-28.305
		c-1.463-15.749-0.29-31.738-0.373-47.626c-0.027-5.168,0.658-10.17-4.241-14.581C397.671,664.428,399.026,658.82,398.792,653.965z
		 M370.257,768.929c-0.012,0.888-0.023,1.771-0.036,2.658c2.39,1.642,4.994,4.813,7.11,4.511c2.405-0.341,5.675-3.48,6.233-5.937
		c0.805-3.551-2.23-6.693-5.98-6.09C374.95,764.498,372.687,767.229,370.257,768.929z"/>
	<path fill-rule="evenodd" clip-rule="evenodd" fill="#808080" d="M517.339,266.513c-7.414,0-13.236,0-19.456,0
		c-0.127-6.006,1.404-10.975,3.208-16.543c2.837-8.76,1.944-18.817,2.096-28.332c0.25-15.695,0.187-31.402-0.071-47.095
		c-0.036-2.09-1.49-4.687-3.107-6.119c-6.174-5.493-6.923-13.051-1.403-18.533c5.062-5.028,13.004-4.648,17.724,0.845
		c4.756,5.533,3.574,13.376-2.242,18.227c-1.583,1.32-2.819,4.027-2.83,6.104c-0.136,22.764-0.171,45.532,0.277,68.288
		c0.063,3.223,3.373,6.263,4.213,9.628C516.785,257.13,516.805,261.534,517.339,266.513z M514.541,160.097
		c0.02-0.923,0.035-1.851,0.055-2.773c-2.468-1.639-4.977-4.591-7.395-4.514c-2.145,0.071-5.425,3.197-5.984,5.516
		c-0.884,3.661,2.129,6.762,5.798,6.365C509.658,164.409,512.04,161.718,514.541,160.097z"/>
	<path fill-rule="evenodd" clip-rule="evenodd" fill="#808080" d="M497.354,654.29c6.994,0,12.955,0,19.479,0
		c-1.074,5.196,2.409,10.482-3.666,14.811c-2.109,1.506-1.93,6.92-1.941,10.553c-0.096,22.155-0.024,44.313,0.268,66.468
		c0.029,2.085,1.547,4.644,3.156,6.134c5.821,5.391,6.573,12.738,1.43,18.164c-4.938,5.204-12.781,5.062-17.75-0.325
		c-4.891-5.304-3.987-13.114,1.735-18.274c1.481-1.336,2.83-3.713,2.85-5.629c0.273-22.351,0.425-44.703,0.227-67.052
		c-0.041-4.269-0.575-8.454-4.437-12.269C496.456,664.642,497.709,658.879,497.354,654.29z M514.475,763.039
		c-0.028-0.898-0.053-1.799-0.08-2.699c-2.429-1.608-4.704-4.186-7.328-4.602c-3.806-0.605-6.227,2.335-6.246,6.119
		c-0.024,4.122,2.68,7.032,6.659,6.322C510.035,767.729,512.155,764.838,514.475,763.039z"/>
	<path fill-rule="evenodd" clip-rule="evenodd" fill="#808080" d="M686.856,450.337c0-6.774,0-12.593,0-19.547
		c4.2,0,8.767-1.15,12.04,0.408c2.132,1.016,3.729,4.015,6.899,4.359c1.906,0.206,3.789,0.979,5.681,0.982
		c22.166,0.027,44.327,0.056,66.49-0.229c2.282-0.029,5.08-1.547,6.705-3.258c5.255-5.533,13.026-6.234,18.294-1.15
		c5.085,4.912,4.886,12.841-0.448,17.685c-5.656,5.144-12.434,4.117-17.897-2.208c-1.375-1.59-4.054-2.878-6.144-2.889
		c-23.128-0.136-46.263-0.16-69.387,0.27c-3.187,0.055-6.96-0.096-9.854,4.007C697.716,450.919,691.651,449.866,686.856,450.337z
		 M794.619,431.36c-3.004,3.911-5.782,5.968-6.179,8.41c-0.626,3.863,1.91,6.871,6.144,6.907c3.896,0.036,6.666-2.628,6.063-6.317
		C800.219,437.741,797.512,435.494,794.619,431.36z"/>
	<path fill-rule="evenodd" clip-rule="evenodd" fill="#808080" d="M299.158,430.79c0,6.849,0,12.674,0,19.437
		c-5.029-1.372-10.205,3.245-14.37-3.346c-1.253-1.978-6.013-2.398-9.171-2.415c-23.133-0.102-46.266,0.028-69.398,0.286
		c-1.559,0.017-3.473,1.355-4.578,2.631c-5.334,6.16-13.241,7.032-18.603,1.809c-4.835-4.717-5.108-12.39-0.603-16.884
		c5.814-5.794,13.143-5.147,19.016,1.233c1.438,1.564,4.082,2.837,6.182,2.856c21.964,0.189,43.929,0.219,65.893-0.008
		c4.704-0.051,9.309-0.114,13.418-4.43C288.996,429.802,294.667,431.091,299.158,430.79z M190.353,447.963
		c0.912-0.036,1.823-0.071,2.73-0.107c1.549-2.473,4.09-4.824,4.412-7.443c0.467-3.806-2.537-6.11-6.346-5.965
		c-3.824,0.148-6.638,2.735-5.889,6.452C185.779,443.491,188.573,445.625,190.353,447.963z"/>
	<path fill-rule="evenodd" clip-rule="evenodd" fill="#808080" d="M686.821,582.358c0-7.149,0-13.103,0-19.682
		c5.251,1.217,10.804-2.473,14.882,3.816c1.069,1.652,5.373,1.593,8.212,1.652c10.961,0.234,21.936,0.154,32.901,0.289
		c3.219,0.041,5.612-0.277,7.851-3.479c4.308-6.154,12.338-6.604,17.463-1.765c5.251,4.959,5.579,13.241,0.708,17.87
		c-5.299,5.042-12.982,4.269-18.294-1.339c-1.612-1.704-4.387-3.178-6.665-3.235c-11.354-0.268-22.736-0.348-34.071,0.239
		c-3.29,0.166-6.322,3.292-9.702,4.114C695.967,581.852,691.585,581.862,686.821,582.358z M759.034,579.715
		c0.899-0.028,1.798-0.056,2.703-0.088c1.584-2.512,4.208-4.91,4.509-7.573c0.433-3.762-2.698-6.626-6.367-5.656
		c-2.319,0.611-5.431,3.877-5.466,5.997C754.374,574.808,757.361,577.272,759.034,579.715z"/>
	<path fill-rule="evenodd" clip-rule="evenodd" fill="#808080" d="M299.158,563.085c0,6.523,0,12.354,0,19.193
		c-4.961-2.005-10.483,2.548-14.754-3.954c-1.312-1.985-6.536-1.851-9.98-1.899c-11.18-0.158-22.364-0.066-33.54,0.233
		c-1.717,0.049-3.837,1.333-4.998,2.699c-5.239,6.159-12.523,7.154-18.009,2.14c-5.67-5.175-6.071-12.649-0.95-17.711
		c5.405-5.346,13.332-4.553,18.666,1.495c1.296,1.469,3.67,2.718,5.588,2.782c10.193,0.341,20.399,0.319,30.6,0.324
		c5.462,0.004,10.412-0.237,14.91-4.965C288.604,561.404,294.41,563.085,299.158,563.085z M233.083,573.651
		c-0.011-0.92-0.02-1.843-0.032-2.768c-2.417-1.664-4.68-4.379-7.284-4.76c-4.011-0.583-6.579,2.391-6.463,6.492
		c0.106,3.912,2.908,6.421,6.563,5.738C228.475,577.867,230.694,575.295,233.083,573.651z"/>
	<path fill-rule="evenodd" clip-rule="evenodd" fill="#E6E6E6" d="M615.456,266.496c-6.212,0-12.025,0-18.671,0
		c0.697-5.232-3.52-10.479,3.044-15.108c2.064-1.449,2.128-6.482,2.191-9.892c0.201-10.38,0.146-20.775-0.281-31.149
		c-0.084-2.026-1.99-4.253-3.574-5.891c-5.042-5.216-5.568-12.057-1.038-17.477c4.112-4.918,10.807-5.561,16.344-1.566
		c5.115,3.689,7.497,12.145,2.722,15.929c-8.116,6.433-5.952,14.433-5.938,22.193c0.017,8.735-0.815,18,1.837,26.007
		C613.906,255.015,616.021,259.944,615.456,266.496z M607.804,187.804c-0.937-0.041-1.872-0.08-2.812-0.119
		c-1.795,2.322-4.624,4.435-5.145,7.015c-0.804,3.971,2.021,6.706,6.116,6.852c3.955,0.14,6.552-2.58,6.092-6.241
		C611.723,192.67,609.297,190.296,607.804,187.804z"/>
	<path fill-rule="evenodd" clip-rule="evenodd" fill="#808080" d="M365.811,266.322c1.204-5.384-2.759-10.71,3.436-15.188
		c2.148-1.554,2.041-6.876,2.129-10.495c0.209-8.615-0.131-17.242-0.151-25.867c-0.011-5.387,0.396-10.289-4.934-14.473
		c-4.918-3.865-3.587-12.524,1.24-16.762c4.883-4.288,12.753-3.486,17.39,1.768c4.213,4.772,3.92,12.872-1.573,16.717
		c-3.73,2.612-4.178,5.474-4.11,9.321c0.194,10.583-0.051,21.18,0.361,31.749c0.147,3.683,0.539,7.218,4.085,10.531
		c2.323,2.164,1.245,7.978,1.749,12.698C378.81,266.322,372.865,266.322,365.811,266.322z M373.678,200.22
		c0.852,0.031,1.7,0.059,2.548,0.092c1.784-2.379,4.605-4.558,5.112-7.186c0.816-4.226-2.6-6.955-6.4-6.262
		c-2.298,0.421-5.552,3.721-5.659,5.865C369.152,195.143,372.081,197.72,373.678,200.22z"/>
	<path fill-rule="evenodd" clip-rule="evenodd" fill="#808080" d="M365.751,654.136c6.706,0,12.508,0,19.325,0
		c-1.332,5.092,3.368,10.268-3.203,14.711c-2.097,1.419-2.41,6.368-2.481,9.725c-0.226,11.359-0.095,22.729,0.215,34.085
		c0.047,1.735,1.403,3.847,2.786,5.056c6.036,5.279,6.849,13.214,1.609,18.587c-4.859,4.99-12.607,4.626-17.755-0.827
		c-4.961-5.26-3.919-12.694,2.132-18.021c1.518-1.332,2.925-3.733,2.953-5.664c0.19-11.75,0.274-23.521-0.317-35.247
		c-0.163-3.25-0.262-6.904-4.035-9.911C364.832,664.91,366.084,658.931,365.751,654.136z M382.706,729.254
		c0.031-0.912,0.063-1.831,0.095-2.746c-2.335-1.732-4.471-4.452-7.047-4.968c-3.737-0.752-6.947,2.181-6.31,5.787
		c0.444,2.521,3.56,5.909,5.949,6.341C377.495,734.049,380.245,730.865,382.706,729.254z"/>
	<path fill-rule="evenodd" clip-rule="evenodd" fill="#808080" d="M616.17,654.238c-1.895,5.287,3.046,10.704-3.798,14.659
		c-1.883,1.09-2.005,6.012-2.125,9.206c-0.296,8.033-0.083,16.083-0.162,24.121c-0.056,5.945-0.458,11.365,5.287,16.038
		c5.086,4.143,3.277,13.028-2.08,17.069c-4.915,3.715-13.067,2.553-16.972-2.409c-4.049-5.151-3.479-13.114,2.063-16.736
		c3.442-2.252,3.836-4.751,3.781-8.188c-0.171-10.197,0.074-20.406-0.361-30.584c-0.162-3.853-0.316-7.656-4.32-10.967
		c-2.137-1.768-0.824-7.708-1.099-12.21C602.86,654.238,608.837,654.238,616.17,654.238z M613.493,726.812
		c0.005-0.912,0.012-1.823,0.017-2.738c-2.45-1.621-4.744-4.213-7.388-4.634c-3.688-0.585-6.206,2.137-6.23,6.028
		c-0.027,3.936,2.581,6.596,6.219,6.028C608.749,731.088,611.045,728.458,613.493,726.812z"/>
	<path fill-rule="evenodd" clip-rule="evenodd" fill="#808080" d="M299.043,350.793c-6.555,1.42-11.343-1.914-16.661-3.272
		c-9.016-2.308-18.833-1.531-28.317-1.982c-2.541-0.124-5.097,0.115-7.633-0.053c-4.026-0.265-7.066,0.19-9.745,4.25
		c-3.583,5.428-11.938,5.576-16.736,1.288c-4.982-4.455-5.743-12.271-1.649-16.947c4.653-5.318,12.69-6.595,17.137-1.459
		c4.098,4.733,8.6,4.932,13.907,4.844c8.219-0.127,16.455,0.341,24.667,0.066c4.368-0.146,8.406-0.852,12.297-4.357
		c2.473-2.228,8.042-1.021,12.734-1.393C299.043,338.626,299.043,344.591,299.043,350.793z M229.331,334.187
		c-0.853-0.02-1.705-0.035-2.557-0.055c-1.775,2.385-4.633,4.593-5.058,7.197c-0.57,3.534,1.979,6.36,6,6.439
		c3.999,0.08,6.714-2.536,6.27-6.158C233.666,338.986,230.967,336.653,229.331,334.187z"/>
	<path fill-rule="evenodd" clip-rule="evenodd" fill="#808080" d="M686.805,351.462c0-6.866,0-12.686,0-19.518
		c4.756,1.926,10.324-3.06,14.513,3.61c1.059,1.677,5.343,1.76,8.157,1.826c10.961,0.247,21.936,0.366,32.895,0.104
		c2.028-0.049,4.528-1.645,5.916-3.285c4.542-5.375,11.922-6.557,17.256-2.305c5.025,4.012,6.202,12.064,2.465,16.884
		c-4.426,5.708-12.844,7.21-17.509,1.796c-4.296-4.982-9.052-4.93-14.47-4.883c-7.245,0.061-14.493-0.201-21.738-0.146
		c-5.429,0.039-10.459,0.044-14.882,5.002C697.525,352.656,691.688,351.237,686.805,351.462z M756.685,349.005
		c0.942,0,1.881-0.003,2.825-0.003c1.617-2.418,4.178-4.677,4.621-7.292c0.65-3.845-2.311-6.278-6.083-6.301
		c-3.861-0.025-6.643,2.615-6.028,6.355C752.446,344.364,755.051,346.606,756.685,349.005z"/>
	<path fill-rule="evenodd" clip-rule="evenodd" fill="#808080" d="M450.266,266.408c-6.041,0-11.85,0-17.593,0
		c-3.052-7.323,2.112-12.907,3.321-19.248c1.403-7.372,1.015-15.116,1-22.702c-0.004-1.292-1.918-2.699-3.139-3.848
		c-5.627-5.331-6.155-13.53-1.102-18.318c4.978-4.707,13.285-4.192,17.89,1.109c4.684,5.39,3.65,12.508-2.101,17.696
		c-1.629,1.471-3.194,4.09-3.143,6.144c0.187,7.739-0.566,16.13,2.247,22.951c1.768,4.291,3.524,8.068,3.349,12.666
		C450.952,263.983,450.547,265.094,450.266,266.408z M442.265,203.822c-0.873,0.039-1.74,0.075-2.608,0.114
		c-1.526,2.519-4.098,4.942-4.328,7.574c-0.329,3.766,2.881,6.468,6.507,5.406c2.279-0.674,5.307-3.963,5.263-6.017
		C447.044,208.507,444.008,206.181,442.265,203.822z"/>
	<path fill-rule="evenodd" clip-rule="evenodd" fill="#808080" d="M299.503,514.86c-8.002,3.586-12.976-2.203-18.937-3.092
		c-7.835-1.163-15.885-1.03-23.842-1.124c-1.07-0.013-2.283,1.81-3.23,2.947c-5.104,6.129-12.619,6.893-18.06,1.776
		c-5.204-4.895-5.073-12.842,0.285-17.723c5.81-5.295,13.237-4.325,18.321,2.262c0.837,1.082,2.275,2.462,3.397,2.431
		c8.141-0.25,16.281-0.702,24.394-1.411c1.375-0.122,2.501-2.366,3.939-2.66c3.646-0.744,7.427-1.3,11.109-1.108
		c0.955,0.05,2.362,3.074,2.504,4.814C299.74,506.415,299.503,510.906,299.503,514.86z M236.603,504.958
		c0.004,0.926,0.004,1.854,0.008,2.781c2.319,1.713,4.455,4.455,6.995,4.902c4.042,0.713,6.512-2.212,6.587-6.313
		c0.079-4.261-2.696-6.877-6.6-6.231C241.065,500.515,238.921,503.257,236.603,504.958z"/>
	<path fill-rule="evenodd" clip-rule="evenodd" fill="#808080" d="M686.725,515.354c0-6.216,0-11.871,0-17.542
		c7.139-3.101,12.703,2.25,19.044,3.388c7.578,1.36,15.487,0.996,23.256,1.046c1.102,0.009,2.33-1.74,3.305-2.842
		c5.244-5.904,13.119-6.744,18.286-1.885c4.907,4.611,4.657,13.185-0.515,17.918c-5.485,5.016-12.856,4.184-18.032-1.9
		c-1.047-1.229-2.608-2.952-3.881-2.908c-8.513,0.286-17.6-0.617-25.289,2.188c-4.313,1.574-8.212,3.408-12.848,3.26
		C689.107,516.042,688.176,515.679,686.725,515.354z M735.056,504.961c-0.008,0.936-0.02,1.87-0.03,2.806
		c2.421,1.62,4.93,4.613,7.24,4.467c2.184-0.14,6.066-3.912,5.791-5.478c-0.449-2.509-3.465-5.868-5.871-6.317
		C740.161,500.062,737.457,503.313,735.056,504.961z"/>
	<path fill-rule="evenodd" clip-rule="evenodd" fill="#808080" d="M450.785,653.833c0,4.678,0.551,8.312-0.182,11.668
		c-0.559,2.564-3.738,4.665-4.011,7.166c-0.868,7.895-1.031,15.876-1.133,23.83c-0.016,1.065,1.792,2.279,2.925,3.224
		c6.004,4.985,6.88,12.843,1.958,18.159c-4.962,5.349-13.285,5.115-18.14-0.509c-5.03-5.817-4.098-13.015,2.203-17.934
		c1.114-0.867,2.699-2.214,2.671-3.305c-0.238-8.731,0.226-17.699-1.8-26.043c-0.804-3.321-3.809-6.447-3.681-10.771
		c0.119-3.876,1.122-5.803,5.358-5.545C441.389,654.04,445.854,653.833,450.785,653.833z M439.807,716.595
		c0.896,0.024,1.787,0.047,2.683,0.071c1.74-2.318,4.51-4.447,4.993-6.998c0.777-4.122-2.528-7.13-6.261-6.452
		c-2.433,0.443-5.64,3.831-6,6.273C434.913,711.585,438.143,714.204,439.807,716.595z"/>
	<path fill-rule="evenodd" clip-rule="evenodd" fill="#808080" d="M493.22,648.317c-36.312,0.008-72.618-0.012-108.924,0.016
		c-19.039,0.017-38.075,0.166-57.114,0.158c-13.942-0.008-22.261-8.383-22.245-22.398c0.071-69.871,0.213-139.743,0.273-209.614
		c0.032-40.623-0.051-81.249-0.063-121.871c0-16.091,6.963-23.142,22.892-23.146c51.03-0.02,102.056,0.013,153.082-0.023
		c59.076-0.044,118.15-0.14,177.227-0.195c15.829-0.016,23.767,7.986,23.747,23.918c-0.061,46.516-0.195,93.032-0.19,139.548
		c0.009,58.677,0.122,117.35,0.174,176.028c0.005,4.907-0.162,9.814-0.182,14.72c-0.063,15.65-7.13,22.836-22.646,22.844
		c-39.446,0.024-78.896,0.009-118.341,0.009C525.012,648.31,509.115,648.31,493.22,648.317z M494.162,295.769
		c0,0.016,0,0.036,0,0.056c-19.424,0-38.843,0.031-58.267-0.008c-28.646-0.058-57.292-0.278-85.937-0.184
		c-11.989,0.045-20.288,8.398-20.676,20.395c-0.194,6.077,0.209,12.164,0.202,18.247c-0.048,44.732-0.135,89.465-0.198,134.197
		c-0.036,27.274-0.095,54.546-0.06,81.82c0.024,17.655,0.092,35.311,0.337,52.969c0.17,12.277,8.089,20.187,20.26,20.635
		c4.312,0.159,8.628,0.35,12.939,0.353c41.598,0.028,83.195,0.021,124.793,0.021c37.075,0,74.156,0,111.234-0.005
		c12.362,0,24.723,0.083,37.084-0.027c13.32-0.119,21.623-8.395,21.88-21.711c0.072-3.722-0.233-7.45-0.226-11.176
		c0.135-47.092,0.345-94.181,0.429-141.268c0.048-27.654-0.063-55.311-0.159-82.961c-0.06-17.07-0.052-34.145-0.399-51.208
		c-0.242-11.962-8.253-19.742-20.208-20.019c-9.021-0.206-18.049-0.137-27.073-0.143c-19.23-0.014-38.458,0.012-57.684,0.016
		C533.009,295.769,513.585,295.769,494.162,295.769z"/>
	<path fill-rule="evenodd" clip-rule="evenodd" fill="#E6E6E6" d="M650.106,460.656c0,47.091,0.035,94.181-0.028,141.274
		c-0.013,10.12-4.681,14.689-14.909,14.697c-73.997,0.035-147.997,0.015-221.995,0.024c-19.436,0-38.867-0.041-58.298,0.083
		c-13.241,0.082-17.961-4.15-17.973-17.261c-0.043-47.103,0.083-94.205,0.067-141.306c-0.012-45.146-0.119-90.286-0.174-135.428
		c-0.004-2.749-0.194-5.524,0.126-8.234c0.832-7.039,6.087-11.315,14.07-11.354c20.803-0.101,41.609-0.101,62.412-0.104
		c72.625-0.008,145.254-0.047,217.88,0.124c4.502,0.008,9.476,0.832,13.392,2.886c5.152,2.693,5.72,8.326,5.695,13.91
		c-0.179,45.718-0.234,91.438-0.328,137.158c-0.005,1.176,0,2.354,0,3.53C650.063,460.656,650.087,460.656,650.106,460.656z"/>
</g>
<g id="_x30_1Fall">
</g>
<g id="Layer_6" display="none">
	<g display="inline">
		<rect x="284.5" y="613.5" fill="none" stroke="#808080" stroke-miterlimit="10" width="384" height="384"/>
		<line fill="none" stroke="#808080" stroke-miterlimit="10" x1="284" y1="933.5" x2="668" y2="933.5"/>
		<line fill="none" stroke="#808080" stroke-miterlimit="10" x1="284" y1="869.5" x2="668" y2="869.5"/>
		<line fill="none" stroke="#808080" stroke-miterlimit="10" x1="284" y1="805.5" x2="668" y2="805.5"/>
		<line fill="none" stroke="#808080" stroke-miterlimit="10" x1="284" y1="741.5" x2="668" y2="741.5"/>
		<line fill="none" stroke="#808080" stroke-miterlimit="10" x1="284" y1="677.5" x2="668" y2="677.5"/>
		<line fill="none" stroke="#808080" stroke-miterlimit="10" x1="604.5" y1="614" x2="604.5" y2="997"/>
		<line fill="none" stroke="#808080" stroke-miterlimit="10" x1="540.5" y1="614" x2="540.5" y2="997"/>
		<line fill="none" stroke="#808080" stroke-miterlimit="10" x1="476.5" y1="614" x2="476.5" y2="997"/>
		<line fill="none" stroke="#808080" stroke-miterlimit="10" x1="412.5" y1="614" x2="412.5" y2="997"/>
		<line fill="none" stroke="#808080" stroke-miterlimit="10" x1="348.5" y1="614" x2="348.5" y2="997"/>
	</g>
	<g display="inline">
		<rect x="284.5" y="997.5" fill="none" stroke="#808080" stroke-miterlimit="10" width="384" height="383"/>
		<line fill="none" stroke="#808080" stroke-miterlimit="10" x1="284" y1="1316.5" x2="668" y2="1316.5"/>
		<line fill="none" stroke="#808080" stroke-miterlimit="10" x1="284" y1="1252.5" x2="668" y2="1252.5"/>
		<line fill="none" stroke="#808080" stroke-miterlimit="10" x1="284" y1="1188.5" x2="668" y2="1188.5"/>
		<line fill="none" stroke="#808080" stroke-miterlimit="10" x1="284" y1="1124.5" x2="668" y2="1124.5"/>
		<line fill="none" stroke="#808080" stroke-miterlimit="10" x1="284" y1="1060.5" x2="668" y2="1060.5"/>
		<line fill="none" stroke="#808080" stroke-miterlimit="10" x1="604.5" y1="997" x2="604.5" y2="1380"/>
		<line fill="none" stroke="#808080" stroke-miterlimit="10" x1="540.5" y1="997" x2="540.5" y2="1380"/>
		<line fill="none" stroke="#808080" stroke-miterlimit="10" x1="476.5" y1="997" x2="476.5" y2="1380"/>
		<line fill="none" stroke="#808080" stroke-miterlimit="10" x1="412.5" y1="997" x2="412.5" y2="1380"/>
		<line fill="none" stroke="#808080" stroke-miterlimit="10" x1="348.5" y1="997" x2="348.5" y2="1380"/>
	</g>
</g>
<g id="Blocks">
	<g>
		<g>
			<g enable-background="new    ">
				<g>
					<polygon fill="#A2A2A2" points="345.602,867 372.972,867 369.5,867 342.13,867 					"/>
				</g>
				<g>
					<rect x="332" y="877" fill="#999999" width="4" height="28"/>
				</g>
				<g enable-background="new    ">
					<defs>
						<path id="SVGID_137_" enable-background="new    " d="M335.648,877h-3.472c0-5,4.458-10,9.953-10h3.472
							C340.107,867,335.648,872,335.648,877z"/>
					</defs>
					<clipPath id="SVGID_2_">
						<use xlink:href="#SVGID_137_"  overflow="visible"/>
					</clipPath>
					<g clip-path="url(#SVGID_2_)" enable-background="new    ">
						<path fill="#9C9C9C" d="M336,877h-3.823c0-4,2.341-7,5.72-9h3.472c-3.38,2-5.721,5-5.721,9"/>
						<path fill="#9F9F9F" d="M341,868h-3.103c0.746,0,1.542-1,2.376-1h3.472c-0.833,0-1.63,1-2.375,1"/>
						<path fill="#A2A2A2" d="M344,867h-3.727c0.602,0,1.222,0,1.857,0h3.472C344.967,867,344,867,344,867"/>
					</g>
				</g>
				<g enable-background="new    ">
					<defs>
						<path id="SVGID_139_" enable-background="new    " d="M345.602,915h-3.472c-5.495,0-9.953-5-9.953-10h3.472
							C335.648,910,340.107,915,345.602,915z"/>
					</defs>
					<clipPath id="SVGID_4_">
						<use xlink:href="#SVGID_139_"  overflow="visible"/>
					</clipPath>
					<g clip-path="url(#SVGID_4_)" enable-background="new    ">
						<path fill="#9C9C9C" d="M346,915h-3.87c-5.495,0-9.953-5-9.953-10h3.472c0,5,4.459,10,9.954,10"/>
					</g>
				</g>
				<g>
					<path fill="#D7D7D7" d="M372.972,867c5.495,0,10.028,4.52,10.028,10.109v27.782c0,5.589-4.533,10.108-10.028,10.108h-27.37
						c-5.495,0-9.602-4.52-9.602-10.108v-27.782c0-5.59,4.107-10.109,9.602-10.109H372.972z"/>
				</g>
			</g>
		</g>
	</g>
	<g>
		<g>
			<g enable-background="new    ">
				<g>
					<polygon fill="#A2A2A2" points="465.6,939 492.969,939 489.497,939 462.128,939 					"/>
				</g>
				<g>
					<rect x="452" y="949" fill="#999999" width="4" height="28"/>
				</g>
				<g enable-background="new    ">
					<defs>
						<path id="SVGID_141_" enable-background="new    " d="M455.646,949h-3.472c0-5,4.459-10,9.954-10h3.472
							C460.104,939,455.646,944,455.646,949z"/>
					</defs>
					<clipPath id="SVGID_6_">
						<use xlink:href="#SVGID_141_"  overflow="visible"/>
					</clipPath>
					<g clip-path="url(#SVGID_6_)" enable-background="new    ">
						<path fill="#9C9C9C" d="M456,949h-3.826c0-4,2.341-7,5.721-9h3.472c-3.38,2-5.721,5-5.721,9"/>
						<path fill="#9F9F9F" d="M461,940h-3.105c0.746,0,1.542-1,2.376-1h3.472c-0.833,0-1.63,1-2.376,1"/>
						<path fill="#A2A2A2" d="M464,939h-3.729c0.602,0,1.223,0,1.857,0h3.472C464.965,939,464,939,464,939"/>
					</g>
				</g>
				<g enable-background="new    ">
					<defs>
						<path id="SVGID_143_" enable-background="new    " d="M465.6,987h-3.472c-5.495,0-9.954-5-9.954-10h3.472
							C455.646,982,460.104,987,465.6,987z"/>
					</defs>
					<clipPath id="SVGID_8_">
						<use xlink:href="#SVGID_143_"  overflow="visible"/>
					</clipPath>
					<g clip-path="url(#SVGID_8_)" enable-background="new    ">
						<path fill="#9C9C9C" d="M466,987h-3.872c-5.495,0-9.954-5-9.954-10h3.472c0,5,4.459,10,9.954,10"/>
					</g>
				</g>
				<g>
					<path fill="#D7D7D7" d="M492.969,939c5.496,0,10.031,4.52,10.031,10.109v27.782c0,5.589-4.535,10.108-10.031,10.108H465.6
						c-5.495,0-9.6-4.52-9.6-10.108v-27.782c0-5.59,4.104-10.109,9.6-10.109H492.969z"/>
				</g>
			</g>
		</g>
	</g>
	<g>
		<g>
			<g enable-background="new    ">
				<g>
					<polygon fill="#A2A2A2" points="616.602,1099 643.971,1099 640.499,1099 613.13,1099 					"/>
				</g>
				<g>
					<rect x="603" y="1109" fill="#999999" width="4" height="28"/>
				</g>
				<g enable-background="new    ">
					<defs>
						<path id="SVGID_145_" enable-background="new    " d="M606.647,1109h-3.472c0-5,4.458-10,9.954-10h3.472
							C611.106,1099,606.647,1104,606.647,1109z"/>
					</defs>
					<clipPath id="SVGID_10_">
						<use xlink:href="#SVGID_145_"  overflow="visible"/>
					</clipPath>
					<g clip-path="url(#SVGID_10_)" enable-background="new    ">
						<path fill="#9C9C9C" d="M607,1109h-3.824c0-4,2.34-7,5.719-9h3.473c-3.379,2-5.72,5-5.72,9"/>
						<path fill="#9F9F9F" d="M612,1100h-3.105c0.747,0,1.544-1,2.377-1h3.473c-0.834,0-1.631,1-2.377,1"/>
						<path fill="#A2A2A2" d="M615,1099h-3.729c0.603,0,1.223,0,1.858,0h3.472C615.967,1099,615,1099,615,1099"/>
					</g>
				</g>
				<g enable-background="new    ">
					<defs>
						<path id="SVGID_147_" enable-background="new    " d="M616.602,1147h-3.472c-5.496,0-9.954-5-9.954-10h3.472
							C606.647,1142,611.106,1147,616.602,1147z"/>
					</defs>
					<clipPath id="SVGID_12_">
						<use xlink:href="#SVGID_147_"  overflow="visible"/>
					</clipPath>
					<g clip-path="url(#SVGID_12_)" enable-background="new    ">
						<path fill="#9C9C9C" d="M617,1147h-3.87c-5.496,0-9.954-5-9.954-10h3.472c0,5,4.459,10,9.954,10"/>
					</g>
				</g>
				<g>
					<path fill="#D7D7D7" d="M643.971,1099c5.495,0,10.029,4.521,10.029,10.102v27.793c0,5.579-4.534,10.105-10.029,10.105h-27.369
						c-5.495,0-9.602-4.526-9.602-10.105v-27.793c0-5.58,4.106-10.102,9.602-10.102H643.971z"/>
				</g>
			</g>
		</g>
	</g>
	<g>
		<g>
			<g enable-background="new    ">
				<g>
					<polygon fill="#A2A2A2" points="560.604,1232 587.965,1232 584.492,1232 557.132,1232 					"/>
				</g>
				<g>
					<rect x="547" y="1242" fill="#999999" width="4" height="28"/>
				</g>
				<g enable-background="new    ">
					<defs>
						<path id="SVGID_149_" enable-background="new    " d="M550.649,1242h-3.472c0-5,4.45-10,9.954-10h3.472
							C555.1,1232,550.649,1237,550.649,1242z"/>
					</defs>
					<clipPath id="SVGID_14_">
						<use xlink:href="#SVGID_149_"  overflow="visible"/>
					</clipPath>
					<g clip-path="url(#SVGID_14_)" enable-background="new    ">
						<path fill="#9C9C9C" d="M551,1242h-3.822c0-4,2.338-7,5.72-9h3.473c-3.383,2-5.721,5-5.721,9"/>
						<path fill="#9F9F9F" d="M556,1233h-3.103c0.746,0,1.542-1,2.375-1h3.473c-0.833,0-1.63,1-2.375,1"/>
						<path fill="#A2A2A2" d="M559,1232h-3.728c0.603,0,1.224,0,1.859,0h3.472C559.968,1232,559,1232,559,1232"/>
					</g>
				</g>
				<g enable-background="new    ">
					<defs>
						<path id="SVGID_151_" enable-background="new    " d="M560.604,1280h-3.472c-5.504,0-9.954-5-9.954-10h3.472
							C550.649,1275,555.1,1280,560.604,1280z"/>
					</defs>
					<clipPath id="SVGID_16_">
						<use xlink:href="#SVGID_151_"  overflow="visible"/>
					</clipPath>
					<g clip-path="url(#SVGID_16_)" enable-background="new    ">
						<path fill="#9C9C9C" d="M561,1280h-3.868c-5.504,0-9.954-5-9.954-10h3.472c0,5,4.45,10,9.954,10"/>
					</g>
				</g>
				<g>
					<path fill="#D7D7D7" d="M587.965,1232c5.504,0,10.035,4.523,10.035,10.104v27.793c0,5.58-4.531,10.104-10.035,10.104h-27.361
						c-5.504,0-9.604-4.523-9.604-10.104v-27.793c0-5.58,4.1-10.104,9.604-10.104H587.965z"/>
				</g>
			</g>
		</g>
	</g>
	<g>
		<g>
			<g enable-background="new    ">
				<g>
					<polygon fill="#A2A2A2" points="247.601,1208 274.971,1208 271.499,1208 244.129,1208 					"/>
				</g>
				<g>
					<rect x="234" y="1218" fill="#999999" width="4" height="28"/>
				</g>
				<g enable-background="new    ">
					<defs>
						<path id="SVGID_153_" enable-background="new    " d="M237.647,1218h-3.472c0-5,4.458-10,9.953-10h3.472
							C242.106,1208,237.647,1213,237.647,1218z"/>
					</defs>
					<clipPath id="SVGID_18_">
						<use xlink:href="#SVGID_153_"  overflow="visible"/>
					</clipPath>
					<g clip-path="url(#SVGID_18_)" enable-background="new    ">
						<path fill="#9C9C9C" d="M238,1218h-3.824c0-4,2.34-7,5.72-9h3.472c-3.379,2-5.72,5-5.72,9"/>
						<path fill="#9F9F9F" d="M243,1209h-3.104c0.746,0,1.543-1,2.376-1h3.472c-0.834,0-1.63,1-2.377,1"/>
						<path fill="#A2A2A2" d="M246,1208h-3.728c0.602,0,1.222,0,1.857,0h3.472C246.966,1208,246,1208,246,1208"/>
					</g>
				</g>
				<g enable-background="new    ">
					<defs>
						<path id="SVGID_155_" enable-background="new    " d="M247.601,1256h-3.472c-5.495,0-9.953-5-9.953-10h3.472
							C237.647,1251,242.106,1256,247.601,1256z"/>
					</defs>
					<clipPath id="SVGID_20_">
						<use xlink:href="#SVGID_155_"  overflow="visible"/>
					</clipPath>
					<g clip-path="url(#SVGID_20_)" enable-background="new    ">
						<path fill="#9C9C9C" d="M248,1256h-3.871c-5.495,0-9.953-5-9.953-10h3.472c0,5,4.658,10.054,10.153,10.054"/>
					</g>
				</g>
				<g>
					<path fill="#D7D7D7" d="M274.971,1208c5.495,0,10.029,4.521,10.029,10.102v27.791c0,5.58-4.534,10.107-10.029,10.107h-27.37
						c-5.495,0-9.601-4.527-9.601-10.107v-27.791c0-5.58,4.106-10.102,9.601-10.102H274.971z"/>
				</g>
			</g>
		</g>
	</g>
	<g>
		<g>
			<g enable-background="new    ">
				<g>
					<polygon fill="#A2A2A2" points="436.601,1364 463.971,1364 460.499,1364 433.129,1364 					"/>
				</g>
				<g>
					<rect x="423" y="1374" fill="#999999" width="4" height="28"/>
				</g>
				<g enable-background="new    ">
					<defs>
						<path id="SVGID_157_" enable-background="new    " d="M426.647,1374h-3.472c0-5,4.458-10,9.953-10h3.472
							C431.106,1364,426.647,1369,426.647,1374z"/>
					</defs>
					<clipPath id="SVGID_22_">
						<use xlink:href="#SVGID_157_"  overflow="visible"/>
					</clipPath>
					<g clip-path="url(#SVGID_22_)" enable-background="new    ">
						<path fill="#9C9C9C" d="M427,1374h-3.824c0-4,2.343-7,5.725-9h3.472c-3.382,2-5.726,5-5.726,9"/>
						<path fill="#9F9F9F" d="M432,1365h-3.099c0.746,0,1.542-1,2.374-1h3.472c-0.833,0-1.628,1-2.374,1"/>
						<path fill="#A2A2A2" d="M435,1364h-3.725c0.601,0,1.221,0,1.854,0h3.472C435.968,1364,435,1364,435,1364"/>
					</g>
				</g>
				<g enable-background="new    ">
					<defs>
						<path id="SVGID_159_" enable-background="new    " d="M436.601,1412h-3.472c-5.495,0-9.953-5-9.953-10h3.472
							C426.647,1407,431.106,1412,436.601,1412z"/>
					</defs>
					<clipPath id="SVGID_24_">
						<use xlink:href="#SVGID_159_"  overflow="visible"/>
					</clipPath>
					<g clip-path="url(#SVGID_24_)" enable-background="new    ">
						<path fill="#9C9C9C" d="M437,1412h-3.871c-5.495,0-9.953-5-9.953-10h3.472c0,5,4.459,10,9.954,10"/>
					</g>
				</g>
				<g>
					<path fill="#D7D7D7" d="M463.971,1364c5.496,0,10.029,4.527,10.029,10.107v27.791c0,5.58-4.533,10.102-10.029,10.102h-27.37
						c-5.495,0-9.601-4.521-9.601-10.102v-27.791c0-5.58,4.106-10.107,9.601-10.107H463.971z"/>
				</g>
			</g>
		</g>
	</g>
	<g>
		<g>
			<g enable-background="new    ">
				<g>
					<polygon fill="#A2A2A2" points="290.603,1028 317.964,1028 314.492,1028 287.131,1028 					"/>
				</g>
				<g>
					<rect x="277" y="1038" fill="#999999" width="4" height="28"/>
				</g>
				<g enable-background="new    ">
					<defs>
						<path id="SVGID_161_" enable-background="new    " d="M280.649,1038h-3.472c0-5,4.449-10,9.953-10h3.472
							C285.099,1028,280.649,1033,280.649,1038z"/>
					</defs>
					<clipPath id="SVGID_26_">
						<use xlink:href="#SVGID_161_"  overflow="visible"/>
					</clipPath>
					<g clip-path="url(#SVGID_26_)" enable-background="new    ">
						<path fill="#9C9C9C" d="M281,1038h-3.822c0-4,2.335-7,5.715-9h3.472c-3.38,2-5.715,5-5.715,9"/>
						<path fill="#9F9F9F" d="M286,1029h-3.107c0.746,0,1.543-1,2.377-1h3.472c-0.834,0-1.631,1-2.377,1"/>
						<path fill="#A2A2A2" d="M289,1028h-3.73c0.603,0,1.225,0,1.861,0h3.472C289.967,1028,289,1028,289,1028"/>
					</g>
				</g>
				<g enable-background="new    ">
					<defs>
						<path id="SVGID_163_" enable-background="new    " d="M290.603,1076h-3.472c-5.504,0-9.953-5-9.953-10h3.472
							C280.649,1071,285.099,1076,290.603,1076z"/>
					</defs>
					<clipPath id="SVGID_28_">
						<use xlink:href="#SVGID_163_"  overflow="visible"/>
					</clipPath>
					<g clip-path="url(#SVGID_28_)" enable-background="new    ">
						<path fill="#9C9C9C" d="M291,1076h-3.869c-5.504,0-9.953-5-9.953-10h3.472c0,5,4.648,10.054,10.152,10.054"/>
					</g>
				</g>
				<g>
					<path fill="#D7D7D7" d="M317.964,1028c5.504,0,10.036,4.521,10.036,10.102v27.791c0,5.58-4.532,10.107-10.036,10.107h-27.361
						c-5.504,0-9.603-4.527-9.603-10.107v-27.791c0-5.58,4.099-10.102,9.603-10.102H317.964z"/>
				</g>
			</g>
		</g>
	</g>
	<g>
		<g>
			<g enable-background="new    ">
				<g>
					<polygon fill="#A2A2A2" points="551.604,1484 578.964,1484 575.492,1484 548.132,1484 					"/>
				</g>
				<g>
					<rect x="538" y="1494" fill="#999999" width="4" height="28"/>
				</g>
				<g enable-background="new    ">
					<defs>
						<path id="SVGID_165_" enable-background="new    " d="M541.649,1494h-3.472c0-5,4.45-10,9.954-10h3.472
							C546.1,1484,541.649,1489,541.649,1494z"/>
					</defs>
					<clipPath id="SVGID_30_">
						<use xlink:href="#SVGID_165_"  overflow="visible"/>
					</clipPath>
					<g clip-path="url(#SVGID_30_)" enable-background="new    ">
						<path fill="#9C9C9C" d="M542,1494h-3.822c0-4,2.338-7,5.72-9h3.472c-3.382,2-5.72,5-5.72,9"/>
						<path fill="#9F9F9F" d="M547,1485h-3.103c0.746,0,1.542-1,2.375-1h3.473c-0.834,0-1.63,1-2.376,1"/>
						<path fill="#A2A2A2" d="M550,1484h-3.728c0.603,0,1.224,0,1.859,0h3.472C550.968,1484,550,1484,550,1484"/>
					</g>
				</g>
				<g enable-background="new    ">
					<defs>
						<path id="SVGID_167_" enable-background="new    " d="M551.604,1532h-3.472c-5.504,0-9.954-5-9.954-10h3.472
							C541.649,1527,546.1,1532,551.604,1532z"/>
					</defs>
					<clipPath id="SVGID_32_">
						<use xlink:href="#SVGID_167_"  overflow="visible"/>
					</clipPath>
					<g clip-path="url(#SVGID_32_)" enable-background="new    ">
						<path fill="#9C9C9C" d="M552,1532h-3.868c-5.504,0-9.954-5-9.954-10h3.472c0,5,4.45,10,9.954,10"/>
					</g>
				</g>
				<g>
					<path fill="#D7D7D7" d="M578.964,1484c5.504,0,10.036,4.523,10.036,10.104v27.793c0,5.58-4.532,10.104-10.036,10.104h-27.36
						c-5.504,0-9.604-4.523-9.604-10.104v-27.793c0-5.58,4.1-10.104,9.604-10.104H578.964z"/>
				</g>
			</g>
		</g>
	</g>
	<g>
		<g>
			<g enable-background="new    ">
				<g>
					<polygon fill="#A2A2A2" points="663.6,1232 690.969,1232 687.497,1232 660.128,1232 					"/>
				</g>
				<g>
					<rect x="650" y="1242" fill="#999999" width="4" height="28"/>
				</g>
				<g enable-background="new    ">
					<defs>
						<path id="SVGID_181_" enable-background="new    " d="M653.646,1242h-3.472c0-5,4.459-10,9.954-10h3.472
							C658.104,1232,653.646,1237,653.646,1242z"/>
					</defs>
					<clipPath id="SVGID_34_">
						<use xlink:href="#SVGID_181_"  overflow="visible"/>
					</clipPath>
					<g clip-path="url(#SVGID_34_)" enable-background="new    ">
						<path fill="#9C9C9C" d="M654,1242h-3.826c0-4,2.343-7,5.725-9h3.472c-3.382,2-5.725,5-5.725,9"/>
						<path fill="#9F9F9F" d="M659,1233h-3.102c0.746,0,1.542-1,2.375-1h3.472c-0.833,0-1.629,1-2.375,1"/>
						<path fill="#A2A2A2" d="M662,1232h-3.727c0.601,0,1.221,0,1.854,0h3.472C662.966,1232,662,1232,662,1232"/>
					</g>
				</g>
				<g enable-background="new    ">
					<defs>
						<path id="SVGID_183_" enable-background="new    " d="M663.6,1280h-3.472c-5.495,0-9.954-5-9.954-10h3.472
							C653.646,1275,658.104,1280,663.6,1280z"/>
					</defs>
					<clipPath id="SVGID_36_">
						<use xlink:href="#SVGID_183_"  overflow="visible"/>
					</clipPath>
					<g clip-path="url(#SVGID_36_)" enable-background="new    ">
						<path fill="#9C9C9C" d="M664,1280h-3.872c-5.495,0-9.954-5-9.954-10h3.472c0,5,4.459,10,9.954,10"/>
					</g>
				</g>
				<g>
					<path fill="#D7D7D7" d="M690.969,1232c5.496,0,10.031,4.523,10.031,10.104v27.793c0,5.58-4.535,10.104-10.031,10.104H663.6
						c-5.495,0-9.6-4.523-9.6-10.104v-27.793c0-5.58,4.104-10.104,9.6-10.104H690.969z"/>
				</g>
			</g>
		</g>
	</g>
	<g>
		<g>
			<g enable-background="new    ">
				<g>
					<polygon fill="#A2A2A2" points="575.598,915 602.967,915 599.495,915 572.126,915 					"/>
				</g>
				<g>
					<rect x="562" y="925" fill="#999999" width="4" height="28"/>
				</g>
				<g enable-background="new    ">
					<defs>
						<path id="SVGID_185_" enable-background="new    " d="M565.652,925h-3.472c0-5,4.45-10,9.945-10h3.472
							C570.103,915,565.652,920,565.652,925z"/>
					</defs>
					<clipPath id="SVGID_38_">
						<use xlink:href="#SVGID_185_"  overflow="visible"/>
					</clipPath>
					<g clip-path="url(#SVGID_38_)" enable-background="new    ">
						<path fill="#9C9C9C" d="M566,925h-3.819c0-4,2.339-7,5.72-9h3.473c-3.381,2-5.721,5-5.721,9"/>
						<path fill="#9F9F9F" d="M571,916h-3.1c0.745,0,1.54-1,2.372-1h3.472c-0.832,0-1.627,1-2.371,1"/>
						<path fill="#A2A2A2" d="M574,915h-3.728c0.601,0,1.22,0,1.854,0h3.472C574.964,915,574,915,574,915"/>
					</g>
				</g>
				<g enable-background="new    ">
					<defs>
						<path id="SVGID_187_" enable-background="new    " d="M575.598,963h-3.472c-5.495,0-9.945-5-9.945-10h3.472
							C565.652,958,570.103,963,575.598,963z"/>
					</defs>
					<clipPath id="SVGID_40_">
						<use xlink:href="#SVGID_187_"  overflow="visible"/>
					</clipPath>
					<g clip-path="url(#SVGID_40_)" enable-background="new    ">
						<path fill="#9C9C9C" d="M576,963h-3.874c-5.495,0-9.945-5-9.945-10h3.472c0,5,4.45,10,9.945,10"/>
					</g>
				</g>
				<g>
					<path fill="#D7D7D7" d="M602.967,915c5.495,0,10.033,4.525,10.033,10.105v27.793c0,5.579-4.538,10.102-10.033,10.102h-27.369
						c-5.495,0-9.598-4.522-9.598-10.102v-27.793c0-5.58,4.103-10.105,9.598-10.105H602.967z"/>
				</g>
			</g>
		</g>
	</g>
	<g>
		<g>
			<g enable-background="new    ">
				<g>
					<polygon fill="#A2A2A2" points="227.603,679 254.964,679 251.492,679 224.131,679 					"/>
				</g>
				<g>
					<rect x="214" y="689" fill="#999999" width="4" height="28"/>
				</g>
				<g enable-background="new    ">
					<defs>
						<path id="SVGID_189_" enable-background="new    " d="M217.649,689h-3.472c0-5,4.449-10,9.953-10h3.472
							C222.099,679,217.649,684,217.649,689z"/>
					</defs>
					<clipPath id="SVGID_42_">
						<use xlink:href="#SVGID_189_"  overflow="visible"/>
					</clipPath>
					<g clip-path="url(#SVGID_42_)" enable-background="new    ">
						<path fill="#9C9C9C" d="M218,689h-3.822c0-4,2.337-7,5.72-9h3.472c-3.382,2-5.72,5-5.72,9"/>
						<path fill="#9F9F9F" d="M223,680h-3.103c0.746,0,1.542-1,2.375-1h3.472c-0.833,0-1.629,1-2.375,1"/>
						<path fill="#A2A2A2" d="M226,679h-3.728c0.602,0,1.223,0,1.858,0h3.472C226.968,679,226,679,226,679"/>
					</g>
				</g>
				<g enable-background="new    ">
					<defs>
						<path id="SVGID_191_" enable-background="new    " d="M227.603,727h-3.472c-5.504,0-9.953-5-9.953-10h3.472
							C217.649,722,222.099,727,227.603,727z"/>
					</defs>
					<clipPath id="SVGID_44_">
						<use xlink:href="#SVGID_191_"  overflow="visible"/>
					</clipPath>
					<g clip-path="url(#SVGID_44_)" enable-background="new    ">
						<path fill="#9C9C9C" d="M228,727h-3.869c-5.504,0-9.953-5-9.953-10h3.472c0,5,4.45,10,9.954,10"/>
					</g>
				</g>
				<g>
					<path fill="#D7D7D7" d="M254.964,679c5.504,0,10.036,4.527,10.036,10.107V716.9c0,5.58-4.532,10.1-10.036,10.1h-27.361
						c-5.504,0-9.603-4.52-9.603-10.1v-27.793c0-5.58,4.099-10.107,9.603-10.107H254.964z"/>
				</g>
			</g>
		</g>
	</g>
	<g>
		<g>
			<g enable-background="new    ">
				<g>
					<polygon fill="#A2A2A2" points="215.597,915 242.967,915 239.495,915 212.125,915 					"/>
				</g>
				<g>
					<rect x="202" y="925" fill="#999999" width="4" height="28"/>
				</g>
				<g enable-background="new    ">
					<defs>
						<path id="SVGID_193_" enable-background="new    " d="M205.652,925h-3.472c0-5,4.449-10,9.944-10h3.472
							C210.102,915,205.652,920,205.652,925z"/>
					</defs>
					<clipPath id="SVGID_46_">
						<use xlink:href="#SVGID_193_"  overflow="visible"/>
					</clipPath>
					<g clip-path="url(#SVGID_46_)" enable-background="new    ">
						<path fill="#9C9C9C" d="M206,925h-3.819c0-4,2.339-7,5.72-9h3.472c-3.381,2-5.72,5-5.72,9"/>
						<path fill="#9F9F9F" d="M211,916h-3.1c0.745,0,1.54-1,2.371-1h3.472c-0.832,0-1.627,1-2.371,1"/>
						<path fill="#A2A2A2" d="M214,915h-3.729c0.601,0,1.22,0,1.854,0h3.472C214.964,915,214,915,214,915"/>
					</g>
				</g>
				<g enable-background="new    ">
					<defs>
						<path id="SVGID_195_" enable-background="new    " d="M215.597,963h-3.472c-5.495,0-9.944-5-9.944-10h3.472
							C205.652,958,210.102,963,215.597,963z"/>
					</defs>
					<clipPath id="SVGID_48_">
						<use xlink:href="#SVGID_195_"  overflow="visible"/>
					</clipPath>
					<g clip-path="url(#SVGID_48_)" enable-background="new    ">
						<path fill="#9C9C9C" d="M216,963h-3.875c-5.495,0-9.944-5-9.944-10h3.472c0,5,4.45,10,9.945,10"/>
					</g>
				</g>
				<g>
					<path fill="#D7D7D7" d="M242.967,915c5.495,0,10.033,4.525,10.033,10.105v27.793c0,5.579-4.538,10.102-10.033,10.102h-27.37
						c-5.495,0-9.597-4.522-9.597-10.102v-27.793c0-5.58,4.102-10.105,9.597-10.105H242.967z"/>
				</g>
			</g>
		</g>
	</g>
	<g>
		<g>
			<g enable-background="new    ">
				<g>
					<polygon fill="#A2A2A2" points="578.604,796 605.964,796 602.492,796 575.132,796 					"/>
				</g>
				<g>
					<rect x="565" y="806" fill="#999999" width="4" height="28"/>
				</g>
				<g enable-background="new    ">
					<defs>
						<path id="SVGID_201_" enable-background="new    " d="M568.649,806h-3.472c0-5,4.45-10,9.954-10h3.472
							C573.1,796,568.649,801,568.649,806z"/>
					</defs>
					<clipPath id="SVGID_50_">
						<use xlink:href="#SVGID_201_"  overflow="visible"/>
					</clipPath>
					<g clip-path="url(#SVGID_50_)" enable-background="new    ">
						<path fill="#9C9C9C" d="M569,806h-3.822c0-4,2.338-7,5.72-9h3.472c-3.382,2-5.72,5-5.72,9"/>
						<path fill="#9F9F9F" d="M574,797h-3.103c0.746,0,1.542-1,2.375-1h3.473c-0.834,0-1.63,1-2.376,1"/>
						<path fill="#A2A2A2" d="M577,796h-3.728c0.603,0,1.224,0,1.859,0h3.472C577.968,796,577,796,577,796"/>
					</g>
				</g>
				<g enable-background="new    ">
					<defs>
						<path id="SVGID_203_" enable-background="new    " d="M578.604,844h-3.472c-5.504,0-9.954-5-9.954-10h3.472
							C568.649,839,573.1,844,578.604,844z"/>
					</defs>
					<clipPath id="SVGID_52_">
						<use xlink:href="#SVGID_203_"  overflow="visible"/>
					</clipPath>
					<g clip-path="url(#SVGID_52_)" enable-background="new    ">
						<path fill="#9C9C9C" d="M579,844h-3.868c-5.504,0-9.954-5-9.954-10h3.472c0,5,4.45,10,9.954,10"/>
					</g>
				</g>
				<g>
					<path fill="#D7D7D7" d="M605.964,796c5.504,0,10.036,4.527,10.036,10.107V833.9c0,5.58-4.532,10.1-10.036,10.1h-27.36
						c-5.504,0-9.604-4.52-9.604-10.1v-27.793c0-5.58,4.1-10.107,9.604-10.107H605.964z"/>
				</g>
			</g>
		</g>
	</g>
	<g>
		<g>
			<g enable-background="new    ">
				<g>
					<polygon fill="#A2A2A2" points="432.596,820 459.966,820 456.494,820 429.124,820 					"/>
				</g>
				<g>
					<rect x="419" y="830" fill="#999999" width="4" height="28"/>
				</g>
				<g enable-background="new    ">
					<defs>
						<path id="SVGID_205_" enable-background="new    " d="M422.651,830h-3.472c0-5,4.449-10,9.944-10h3.472
							C427.101,820,422.651,825,422.651,830z"/>
					</defs>
					<clipPath id="SVGID_54_">
						<use xlink:href="#SVGID_205_"  overflow="visible"/>
					</clipPath>
					<g clip-path="url(#SVGID_54_)" enable-background="new    ">
						<path fill="#9C9C9C" d="M423,830h-3.82c0-4,2.336-7,5.714-9h3.472c-3.378,2-5.715,5-5.715,9"/>
						<path fill="#9F9F9F" d="M428,821h-3.106c0.745,0,1.541-1,2.374-1h3.472c-0.833,0-1.628,1-2.373,1"/>
						<path fill="#A2A2A2" d="M431,820h-3.732c0.602,0,1.222,0,1.856,0h3.472C431.961,820,431,820,431,820"/>
					</g>
				</g>
				<g enable-background="new    ">
					<defs>
						<path id="SVGID_207_" enable-background="new    " d="M432.596,868h-3.472c-5.495,0-9.944-5-9.944-10h3.472
							C422.651,863,427.101,868,432.596,868z"/>
					</defs>
					<clipPath id="SVGID_56_">
						<use xlink:href="#SVGID_207_"  overflow="visible"/>
					</clipPath>
					<g clip-path="url(#SVGID_56_)" enable-background="new    ">
						<path fill="#9C9C9C" d="M433,868h-3.876c-5.495,0-9.944-5-9.944-10h3.472c0,5,4.45,10,9.945,10"/>
					</g>
				</g>
				<g>
					<path fill="#D7D7D7" d="M459.966,820c5.496,0,10.034,4.521,10.034,10.102v27.792c0,5.58-4.538,10.106-10.034,10.106h-27.37
						c-5.495,0-9.596-4.526-9.596-10.106v-27.792c0-5.58,4.101-10.102,9.596-10.102H459.966z"/>
				</g>
			</g>
		</g>
	</g>
	<g>
		<g>
			<g enable-background="new    ">
				<g>
					<polygon fill="#A2A2A2" points="368.597,1120 395.967,1120 392.495,1120 365.125,1120 					"/>
				</g>
				<g>
					<rect x="355" y="1130" fill="#999999" width="4" height="28"/>
				</g>
				<g enable-background="new    ">
					<defs>
						<path id="SVGID_209_" enable-background="new    " d="M358.652,1130h-3.472c0-5,4.449-10,9.944-10h3.472
							C363.102,1120,358.652,1125,358.652,1130z"/>
					</defs>
					<clipPath id="SVGID_58_">
						<use xlink:href="#SVGID_209_"  overflow="visible"/>
					</clipPath>
					<g clip-path="url(#SVGID_58_)" enable-background="new    ">
						<path fill="#9C9C9C" d="M359,1130h-3.819c0-4,2.339-7,5.72-9h3.472c-3.381,2-5.72,5-5.72,9"/>
						<path fill="#9F9F9F" d="M364,1121h-3.1c0.745,0,1.54-1,2.371-1h3.472c-0.832,0-1.627,1-2.371,1"/>
						<path fill="#A2A2A2" d="M367,1120h-3.729c0.601,0,1.22,0,1.854,0h3.472C367.964,1120,367,1120,367,1120"/>
					</g>
				</g>
				<g enable-background="new    ">
					<defs>
						<path id="SVGID_211_" enable-background="new    " d="M368.597,1168h-3.472c-5.495,0-9.944-5-9.944-10h3.472
							C358.652,1163,363.102,1168,368.597,1168z"/>
					</defs>
					<clipPath id="SVGID_60_">
						<use xlink:href="#SVGID_211_"  overflow="visible"/>
					</clipPath>
					<g clip-path="url(#SVGID_60_)" enable-background="new    ">
						<path fill="#9C9C9C" d="M369,1168h-3.875c-5.495,0-9.944-5-9.944-10h3.472c0,5,4.45,10,9.945,10"/>
					</g>
				</g>
				<g>
					<path fill="#D7D7D7" d="M395.967,1120c5.495,0,10.033,4.527,10.033,10.107v27.793c0,5.58-4.538,10.1-10.033,10.1h-27.37
						c-5.495,0-9.597-4.52-9.597-10.1v-27.793c0-5.58,4.102-10.107,9.597-10.107H395.967z"/>
				</g>
			</g>
		</g>
	</g>
	<g>
		<g>
			<g enable-background="new    ">
				<g>
					<polygon fill="#A2A2A2" points="674.598,939 701.967,939 698.495,939 671.126,939 					"/>
				</g>
				<g>
					<rect x="661" y="949" fill="#999999" width="4" height="28"/>
				</g>
				<g enable-background="new    ">
					<defs>
						<path id="SVGID_213_" enable-background="new    " d="M664.652,949h-3.472c0-5,4.45-10,9.945-10h3.472
							C669.103,939,664.652,944,664.652,949z"/>
					</defs>
					<clipPath id="SVGID_62_">
						<use xlink:href="#SVGID_213_"  overflow="visible"/>
					</clipPath>
					<g clip-path="url(#SVGID_62_)" enable-background="new    ">
						<path fill="#9C9C9C" d="M665,949h-3.819c0-4,2.337-7,5.716-9h3.472c-3.378,2-5.716,5-5.716,9"/>
						<path fill="#9F9F9F" d="M670,940h-3.104c0.745,0,1.54-1,2.373-1h3.472c-0.832,0-1.628,1-2.373,1"/>
						<path fill="#A2A2A2" d="M673,939h-3.73c0.602,0,1.222,0,1.856,0h3.472C673.963,939,673,939,673,939"/>
					</g>
				</g>
				<g enable-background="new    ">
					<defs>
						<path id="SVGID_215_" enable-background="new    " d="M674.598,987h-3.472c-5.495,0-9.945-5-9.945-10h3.472
							C664.652,982,669.103,987,674.598,987z"/>
					</defs>
					<clipPath id="SVGID_64_">
						<use xlink:href="#SVGID_215_"  overflow="visible"/>
					</clipPath>
					<g clip-path="url(#SVGID_64_)" enable-background="new    ">
						<path fill="#9C9C9C" d="M675,987h-3.874c-5.495,0-9.945-5-9.945-10h3.472c0,5,4.45,10,9.945,10"/>
					</g>
				</g>
				<g>
					<path fill="#D7D7D7" d="M701.967,939c5.495,0,10.033,4.52,10.033,10.109v27.782c0,5.589-4.538,10.108-10.033,10.108h-27.369
						c-5.495,0-9.598-4.52-9.598-10.108v-27.782c0-5.59,4.103-10.109,9.598-10.109H701.967z"/>
				</g>
			</g>
		</g>
	</g>
	<g>
		<g>
			<g enable-background="new    ">
				<g>
					<polygon fill="#A2A2A2" points="460.596,1099 487.965,1099 484.493,1099 457.124,1099 					"/>
				</g>
				<g>
					<rect x="447" y="1109" fill="#999999" width="4" height="28"/>
				</g>
				<g enable-background="new    ">
					<defs>
						<path id="SVGID_217_" enable-background="new    " d="M450.65,1109h-3.472c0-5,4.45-10,9.945-10h3.472
							C455.101,1099,450.65,1104,450.65,1109z"/>
					</defs>
					<clipPath id="SVGID_66_">
						<use xlink:href="#SVGID_217_"  overflow="visible"/>
					</clipPath>
					<g clip-path="url(#SVGID_66_)" enable-background="new    ">
						<path fill="#9C9C9C" d="M451,1109h-3.821c0-4,2.336-7,5.715-9h3.472c-3.378,2-5.715,5-5.715,9"/>
						<path fill="#9F9F9F" d="M456,1100h-3.106c0.745,0,1.541-1,2.373-1h3.473c-0.833,0-1.629,1-2.374,1"/>
						<path fill="#A2A2A2" d="M459,1099h-3.733c0.602,0,1.223,0,1.857,0h3.472C459.961,1099,459,1099,459,1099"/>
					</g>
				</g>
				<g enable-background="new    ">
					<defs>
						<path id="SVGID_219_" enable-background="new    " d="M460.596,1147h-3.472c-5.495,0-9.945-5-9.945-10h3.472
							C450.65,1142,455.101,1147,460.596,1147z"/>
					</defs>
					<clipPath id="SVGID_68_">
						<use xlink:href="#SVGID_219_"  overflow="visible"/>
					</clipPath>
					<g clip-path="url(#SVGID_68_)" enable-background="new    ">
						<path fill="#9C9C9C" d="M461,1147h-3.876c-5.495,0-9.945-5-9.945-10h3.472c0,5,4.45,10,9.945,10"/>
					</g>
				</g>
				<g>
					<path fill="#D7D7D7" d="M487.965,1099c5.495,0,10.035,4.521,10.035,10.102v27.793c0,5.579-4.54,10.105-10.035,10.105h-27.369
						c-5.495,0-9.596-4.526-9.596-10.105v-27.793c0-5.58,4.101-10.102,9.596-10.102H487.965z"/>
				</g>
			</g>
		</g>
	</g>
</g>
<g id="Skysraper">
</g>
</svg>
